<svg width="200" height="200" viewBox="0 0 200 200" xmlns="http://www.w3.org/2000/svg">
  <g fill="none" stroke="#ddd0c0" stroke-width="0.7" opacity="0.4" stroke-linecap="round" stroke-linejoin="round">
    <polygon points="100.0,62.0 110.28,75.18 126.87,73.13 124.82,89.72 138.0,100.0 124.82,110.28 126.87,126.87 110.28,124.82 100.0,138.0 89.72,124.82 73.13,126.87 75.18,110.28 62.0,100.0 75.18,89.72 73.13,73.13 89.72,75.18"/>
    <polygon points="106.54,84.2 115.8,93.46 115.8,106.54 106.54,115.8 93.46,115.8 84.2,106.54 84.2,93.46 93.46,84.2"/>
    <polygon points="100.0,62.0 138.0,100.0 100.0,138.0 62.0,100.0"/>
    <polygon points="126.87,73.13 126.87,126.87 73.13,126.87 73.13,73.13"/>
    <polygon points="0.0,-22.8 22.8,0.0 0.0,22.8 -22.8,0.0"/>
    <polygon points="16.12,-16.12 16.12,16.12 -16.12,16.12 -16.12,-16.12"/>
    <polygon points="200.0,-22.8 222.8,0.0 200.0,22.8 177.2,0.0"/>
    <polygon points="216.12,-16.12 216.12,16.12 183.88,16.12 183.88,-16.12"/>
    <polygon points="0.0,177.2 22.8,200.0 0.0,222.8 -22.8,200.0"/>
    <polygon points="16.12,183.88 16.12,216.12 -16.12,216.12 -16.12,183.88"/>
    <polygon points="200.0,177.2 222.8,200.0 200.0,222.8 177.2,200.0"/>
    <polygon points="216.12,183.88 216.12,216.12 183.88,216.12 183.88,183.88"/>
    <polygon points="100.0,-12.0 112.0,0.0 100.0,12.0 88.0,0.0"/>
    <polygon points="100.0,-6.0 106.0,0.0 100.0,6.0 94.0,0.0"/>
    <polygon points="200.0,88.0 212.0,100.0 200.0,112.0 188.0,100.0"/>
    <polygon points="200.0,94.0 206.0,100.0 200.0,106.0 194.0,100.0"/>
    <polygon points="100.0,188.0 112.0,200.0 100.0,212.0 88.0,200.0"/>
    <polygon points="100.0,194.0 106.0,200.0 100.0,206.0 94.0,200.0"/>
    <polygon points="0.0,88.0 12.0,100.0 0.0,112.0 -12.0,100.0"/>
    <polygon points="0.0,94.0 6.0,100.0 0.0,106.0 -6.0,100.0"/>
    <line x1="100.0" y1="62.0" x2="100.0" y2="0"/>
    <line x1="138.0" y1="100.0" x2="200" y2="100.0"/>
    <line x1="100.0" y1="138.0" x2="100.0" y2="200"/>
    <line x1="62.0" y1="100.0" x2="0" y2="100.0"/>
    <line x1="126.87" y1="73.13" x2="200" y2="0"/>
    <line x1="73.13" y1="73.13" x2="0" y2="0"/>
    <line x1="126.87" y1="126.87" x2="200" y2="200"/>
    <line x1="73.13" y1="126.87" x2="0" y2="200"/>
    <path d="M145.11,83.58 A48,48 0 0,1 145.11,116.42"/>
    <path d="M116.42,145.11 A48,48 0 0,1 83.58,145.11"/>
    <path d="M54.89,116.42 A48,48 0 0,1 54.89,83.58"/>
    <path d="M83.58,54.89 A48,48 0 0,1 116.42,54.89"/>
  </g>
</svg>