<svg width="200" height="200" viewBox="0 0 200 200" xmlns="http://www.w3.org/2000/svg">
  <g fill="none" stroke="#2a2218" stroke-width="0.5" opacity="0.55" stroke-linecap="round" stroke-linejoin="round">
    <circle cx="100" cy="100" r="60"/>
    <circle cx="100" cy="100" r="45"/>
    <circle cx="100" cy="100" r="30"/>
    <circle cx="100" cy="100" r="15"/>
    <line x1="100" y1="40" x2="100" y2="160"/>
    <line x1="40" y1="100" x2="160" y2="100"/>
    <line x1="58" y1="58" x2="142" y2="142"/>
    <line x1="142" y1="58" x2="58" y2="142"/>
    <circle cx="100" cy="40" r="2"/>
    <circle cx="100" cy="160" r="2"/>
    <circle cx="40" cy="100" r="2"/>
    <circle cx="160" cy="100" r="2"/>
    <circle cx="58" cy="58" r="2"/>
    <circle cx="142" cy="142" r="2"/>
    <circle cx="142" cy="58" r="2"/>
    <circle cx="58" cy="142" r="2"/>
    <circle cx="100" cy="70" r="8" stroke-width="0.3"/>
    <circle cx="100" cy="130" r="8" stroke-width="0.3"/>
    <circle cx="70" cy="100" r="8" stroke-width="0.3"/>
    <circle cx="130" cy="100" r="8" stroke-width="0.3"/>
  </g>
</svg>